<svg width="36" height="30" viewBox="0 0 36 30" fill="none" xmlns="http://www.w3.org/2000/svg">
<path fill-rule="evenodd" clip-rule="evenodd" d="M17.7379 6.5625C18.0246 6.5625 18.2994 6.66127 18.5021 6.83709C18.7048 7.0129 18.8186 7.25136 18.8186 7.5V15C18.8186 15.2486 18.7048 15.4871 18.5021 15.6629C18.2994 15.8387 18.0246 15.9375 17.7379 15.9375H9.09241C8.80579 15.9375 8.53092 15.8387 8.32825 15.6629C8.12558 15.4871 8.01172 15.2486 8.01172 15C8.01172 14.7514 8.12558 14.5129 8.32825 14.3371C8.53092 14.1613 8.80579 14.0625 9.09241 14.0625H16.6573V7.5C16.6573 7.25136 16.7711 7.0129 16.9738 6.83709C17.1764 6.66127 17.4513 6.5625 17.7379 6.5625Z" fill="#5F2EEA"/>
<path fill-rule="evenodd" clip-rule="evenodd" d="M16.6562 15C16.6562 14.7514 16.7701 14.5129 16.9728 14.3371C17.1754 14.1613 17.4503 14.0625 17.7369 14.0625H26.3825C26.6691 14.0625 26.944 14.1613 27.1466 14.3371C27.3493 14.5129 27.4632 14.7514 27.4632 15C27.4632 15.2486 27.3493 15.4871 27.1466 15.6629C26.944 15.8387 26.6691 15.9375 26.3825 15.9375H18.8176V22.5C18.8176 22.7486 18.7038 22.9871 18.5011 23.1629C18.2984 23.3387 18.0236 23.4375 17.7369 23.4375C17.4503 23.4375 17.1754 23.3387 16.9728 23.1629C16.7701 22.9871 16.6562 22.7486 16.6562 22.5V15Z" fill="#5F2EEA"/>
</svg>
